<svg width="64" height="64" viewBox="0 0 64 64" fill="none" xmlns="http://www.w3.org/2000/svg">
<path d="M27.4999 28.7001C27.5999 28.4001 27.5999 28.2001 27.6999 27.9001C27.6999 27.8001 27.7999 27.8001 27.8999 27.8001C30.1999 27.4001 32.4999 27.0001 34.7999 26.7001C35.1999 26.6001 35.6999 26.7001 36.1999 26.7001C36.1999 26.8001 36.0999 27.0001 36.0999 27.1001C34.6999 32.0001 33.2999 36.9001 31.8999 41.7001C31.7999 42.2001 31.6999 42.7001 31.5999 43.3001C31.4999 43.7001 31.6999 44.0001 31.8999 44.1001C32.1999 44.3001 32.4999 44.2001 32.6999 44.0001C33.0999 43.6001 33.5999 43.2001 33.9999 42.7001C34.3999 42.2001 34.6999 41.7001 35.0999 41.2001C35.0999 41.1001 35.1999 41.1001 35.1999 41.0001C35.3999 41.1001 35.6999 41.3001 35.9999 41.4001C35.5999 42.0001 35.1999 42.6001 34.7999 43.2001C33.9999 44.3001 33.0999 45.4001 31.8999 46.1001C30.7999 46.8001 29.6999 47.1001 28.3999 46.9001C26.7999 46.6001 25.7999 45.3001 26.0999 43.7001C26.2999 42.6001 26.5999 41.5001 26.8999 40.5001C27.7999 37.4001 28.6999 34.3001 29.5999 31.3001C29.6999 30.9001 29.7999 30.5001 29.7999 30.1001C29.8999 29.2001 29.1999 28.7001 28.4999 28.7001C28.0999 28.7001 27.7999 28.7001 27.4999 28.7001Z" fill="white"/>
<path d="M31.8008 20C31.8008 18.3 33.2008 16.9 34.8008 16.8C36.6008 16.8 38.0008 18.2 38.0008 20C38.0008 21.7 36.6008 23.1 34.9008 23.1C33.2008 23.2 31.8008 21.8 31.8008 20Z" fill="white"/>
<path d="M32 0C14.3 0 0 14.3 0 32C0 49.7 14.3 64 32 64C49.7 64 64 49.7 64 32C64 14.3 49.7 0 32 0ZM32 60C16.5 60 4 47.5 4 32C4 16.5 16.5 4 32 4C47.5 4 60 16.5 60 32C60 47.5 47.5 60 32 60Z" fill="white"/>
</svg>
